<svg width="301" height="23" viewBox="0 0 301 23" fill="none" xmlns="http://www.w3.org/2000/svg">
<g clip-path="url(#clip0_3_160)">
<path d="M151.47 17.7436V4.40297H153.605L160.942 14.6086L161.275 15.0088L161.609 14.6086L168.929 4.40297H171.064V17.7436H169.53V5.67033L167.912 8.05496L161.909 16.3262H160.625L154.555 8.07165L152.937 5.67033V17.7436H151.47ZM191.532 17.7436H189.747L187.796 14.5752H176.79L174.839 17.7436H173.055L181.343 4.40297H183.244L191.532 17.7436ZM177.591 13.2578H186.979L182.527 6.02051L182.277 5.38683L182.043 6.02051L177.591 13.2578ZM199.991 10.8231H208.696V17.7436H207.195L207.112 15.8592C206.812 16.1705 206.439 16.4651 205.994 16.7431C205.55 17.0099 205.027 17.2433 204.427 17.4434C203.838 17.6436 203.176 17.7992 202.442 17.9104C201.709 18.0215 200.908 18.0771 200.041 18.0771C198.852 18.0771 197.734 17.9493 196.69 17.6936C195.644 17.4268 194.733 17.0099 193.955 16.4429C193.176 15.8759 192.559 15.1533 192.103 14.275C191.659 13.3857 191.436 12.3184 191.436 11.0733C191.436 9.86153 191.648 8.81649 192.07 7.93824C192.504 7.04886 193.115 6.32067 193.904 5.7537C194.694 5.17561 195.639 4.75315 196.739 4.48634C197.851 4.20842 199.085 4.06946 200.441 4.06946C201.609 4.06946 202.682 4.18617 203.66 4.41963C204.638 4.64199 205.489 4.94771 206.211 5.33682C206.934 5.72593 207.517 6.18171 207.962 6.70423C208.418 7.21561 208.707 7.75479 208.829 8.3218H207.195C207.106 7.9549 206.889 7.59917 206.545 7.25452C206.2 6.89879 205.739 6.58749 205.161 6.32067C204.594 6.04275 203.91 5.8204 203.109 5.65364C202.32 5.48688 201.431 5.40352 200.441 5.40352C199.474 5.40352 198.552 5.50358 197.673 5.70369C196.795 5.89269 196.022 6.21507 195.355 6.67088C194.688 7.11556 194.155 7.69923 193.755 8.42182C193.366 9.14445 193.171 10.0283 193.171 11.0733C193.171 12.1294 193.366 13.0188 193.755 13.7414C194.155 14.464 194.688 15.0477 195.355 15.4924C196.022 15.9371 196.795 16.2594 197.673 16.4596C198.552 16.6486 199.474 16.7431 200.441 16.7431C201.42 16.7431 202.315 16.6653 203.126 16.5096C203.938 16.3428 204.633 16.126 205.211 15.8592C205.8 15.5924 206.256 15.2867 206.578 14.9421C206.901 14.5863 207.062 14.225 207.062 13.8581V12.1572H199.991V10.8231ZM229.059 17.7436H227.274L225.323 14.5752H214.317L212.366 17.7436H210.582L218.87 4.40297H220.771L229.059 17.7436ZM215.118 13.2578H224.506L220.054 6.02051L219.804 5.38683L219.57 6.02051L215.118 13.2578ZM230.069 4.40297H246.978V5.73704L232.62 16.4095H246.978V17.7436H230.069V16.4095L244.46 5.73704H230.069V4.40297ZM249.108 17.7436V4.40297H250.842V17.7436H249.108ZM253.743 17.7436V4.40297H255.51L268.684 15.7092V4.40297H270.452V17.7436H268.684L255.51 6.48743V17.7436H253.743ZM272.946 17.7436V4.40297H287.304V5.73704H274.68V9.98935H286.136V11.3234H274.68V16.4095H287.471V17.7436H272.946Z" fill="#BB9457"/>
<path d="M0.5 11.0898H134.564" stroke="#BB9457" stroke-width="0.821468"/>
</g>
<defs>
<clipPath id="clip0_3_160">
<rect width="300" height="23.0011" fill="white" transform="translate(0.5)"/>
</clipPath>
</defs>
</svg>
