<svg width="20" height="20" viewBox="0 0 20 20" fill="none" xmlns="http://www.w3.org/2000/svg">
<path d="M19.8844 13.2994C19.7278 15.0325 19.476 16.4408 19.1697 17.6973C18.9655 18.9539 17.7403 20.001 16.413 20.001H14.7794C13.8605 20.001 13.1458 19.268 13.1458 18.3256V14.0324C13.1458 12.9853 12.329 12.1476 11.308 12.1476H8.95977C7.93878 12.1476 7.12199 12.9853 7.12199 14.0324V18.3256C7.12199 19.268 6.4073 20.001 5.48841 20.001H3.54853C2.22124 20.001 1.09815 19.0586 0.791854 17.6973C0.485557 16.3361 0.219989 15.0337 0.0771611 13.2994C-0.104106 11.0984 0.0771611 9.00621 0.17926 7.64496C0.17926 6.80726 0.689755 5.96956 1.40445 5.446L8.55138 0.524537C8.95977 0.210401 9.47027 0.000976562 9.98076 0.000976562C10.4913 0.000976562 11.1039 0.210401 11.5122 0.524537L18.6592 5.446C19.3739 5.96956 19.8844 6.80726 19.8844 7.64496C19.9865 9.00621 20.0831 11.1002 19.8844 13.2994Z" fill="#2B2D42"/>
</svg>
