<svg width="183" height="85" viewBox="0 0 183 85" fill="none" xmlns="http://www.w3.org/2000/svg">
<path d="M25.9676 35.9307C28.1581 32.539 30.7018 29.1473 33.5989 25.7556C36.5666 22.2933 39.8876 18.9369 43.562 15.6865C47.2361 12.4362 51.1933 9.82175 55.4329 7.84329C59.743 5.79411 63.8766 4.76956 67.8339 4.76956C72.0735 4.76956 75.1471 6.07679 77.0547 8.69121C79.0333 11.235 80.0224 14.5206 80.0224 18.5483C80.0224 24.4837 77.8674 31.3377 73.5573 39.1104C69.3177 46.883 64.0536 54.0551 57.7649 60.6266C51.4757 67.1976 44.4452 72.7802 36.6726 77.3726C28.9 81.9655 21.7987 84.262 15.3686 84.262C9.99841 84.262 6.07677 82.7077 3.60368 79.5986C1.20121 76.5605 0 72.6387 0 67.8339C0 63.1699 1.23654 57.8354 3.70969 51.8292C6.25345 45.8231 9.78646 39.817 14.3087 33.8109C18.9016 27.8047 24.0598 22.2579 29.7832 17.1704C35.5067 12.0829 41.9014 7.94924 48.9673 4.76956C56.1041 1.58985 63.0995 0 69.9534 0V0.52995C62.6047 0.52995 54.9736 2.72042 47.0597 7.10132C39.1457 11.4823 32.1504 16.9585 26.0736 23.5298C20.0675 30.0305 15.0859 37.2026 11.129 45.0458C7.24265 52.8891 5.29952 60.1318 5.29952 66.7738C5.29952 71.4372 6.50073 75.253 8.90321 78.2207C11.3763 81.1884 14.768 82.6722 19.0782 82.6722C24.0951 82.6722 29.9246 80.3757 36.5666 75.7828C43.2087 71.1194 49.2857 65.5374 54.7967 59.0363C60.3792 52.4651 65.0781 45.4698 68.8934 38.0505C72.7802 30.5605 74.7233 24.2364 74.7233 19.0783C74.7233 14.2734 73.8047 10.8817 71.9675 8.90317C70.2008 6.85404 68.1162 5.82945 65.7138 5.82945C59.3547 5.82945 52.1119 9.29179 43.9859 16.2165C35.86 23.1412 30.1366 30.0659 26.8155 36.9906C26.5329 37.5559 26.2149 37.8385 25.8616 37.8385C25.579 37.8385 25.4376 37.6619 25.4376 37.3086C25.4376 37.0966 25.6143 36.6373 25.9676 35.9307ZM91.9183 49.2854C92.5546 49.2854 93.1198 49.5681 93.614 50.1334C94.1088 50.628 94.3562 51.1932 94.3562 51.8292C94.3562 53.1011 93.685 54.161 92.3421 55.0091C90.9997 55.8567 89.6218 56.2805 88.2085 56.2805C88.9152 53.7372 90.0456 51.5819 91.6005 49.8154C86.3713 49.8154 78.4573 57.2346 67.8586 72.0735L62.559 79.4926H57.2593C66.7986 65.5724 74.0413 55.5034 78.9876 49.2854C80.0477 49.7801 80.5774 50.6633 80.5774 51.9352C80.5774 52.5711 80.4714 53.2071 80.2595 53.8432C80.1181 54.4084 79.8707 55.0091 79.5174 55.6448C79.164 56.2101 78.8462 56.6694 78.5638 57.0227C78.3514 57.3761 77.998 57.8709 77.5038 58.5065C77.009 59.0718 76.7266 59.4251 76.6557 59.5666C76.3733 59.9904 75.4192 61.1919 73.7939 63.1699C72.1687 65.1486 71.0027 66.5969 70.2965 67.5155L70.5084 67.622C75.5252 61.1919 79.6943 56.5279 83.0153 53.631C86.4068 50.7339 89.3744 49.2854 91.9183 49.2854ZM90.9605 74.7233C90.9605 77.7614 92.3733 79.2807 95.2001 79.2807C99.0153 79.2807 103.396 76.5605 108.343 71.1194C113.289 65.6783 115.762 60.3437 115.762 55.1151C115.762 53.5604 115.444 52.3238 114.808 51.4052C114.172 50.4867 113.43 50.0274 112.582 50.0274C108.343 50.0274 102.407 55.2915 94.7757 65.8198C92.2324 69.3527 90.9605 72.3209 90.9605 74.7233ZM117.67 26.4976C118.377 27.2042 118.729 28.264 118.729 29.6772C118.729 30.1012 118.624 30.5958 118.412 31.1611C118.27 31.6558 118.094 32.1151 117.882 32.539C117.74 32.963 117.458 33.5282 117.034 34.2348C116.61 34.8708 116.257 35.3654 115.974 35.7187C115.762 36.0014 115.408 36.5313 114.914 37.3086C114.419 38.0152 114.102 38.4391 113.96 38.5804L106.223 49.2854C103.891 52.6065 101.312 56.1041 98.4856 59.7785C95.7298 63.3824 94.3164 65.2196 94.246 65.29L94.4579 65.396C102.372 54.6558 108.766 49.2854 113.642 49.2854C115.762 49.2854 117.387 49.886 118.518 51.0873C119.719 52.2885 120.32 53.9491 120.32 56.0686C120.32 59.743 118.695 63.5233 115.444 67.4095C112.264 71.2253 108.626 74.299 104.527 76.6309C100.499 78.8919 97.0372 80.0224 94.14 80.0224C88.9818 80.0224 86.4025 77.7614 86.4025 73.2395C86.4025 70.9075 88.0987 67.2331 91.4902 62.2164C92.2673 61.0149 100.994 49.1088 117.67 26.4976ZM129.574 62.5342L129.044 62.4283C130.457 58.754 132.577 55.6448 135.403 53.1011C138.23 50.5573 140.879 49.2854 143.353 49.2854C145.472 49.2854 147.098 49.886 148.228 51.0873C149.43 52.2885 150.03 53.9491 150.03 56.0686C150.03 61.0149 147.204 66.2441 141.551 71.7551C135.898 77.2666 130.881 80.0224 126.5 80.0224C121.342 80.0224 118.763 77.7614 118.763 73.2395C118.763 67.445 121.836 61.6512 127.984 55.8567C134.202 50.0627 140.244 47.1656 146.109 47.1656V47.6956C141.868 47.6956 137.912 49.2148 134.237 52.2532C130.633 55.2915 127.913 58.8244 126.076 62.8521C124.239 66.8093 123.32 70.5896 123.32 74.193C123.32 77.585 124.734 79.2807 127.56 79.2807C131.87 79.2807 135.933 76.2776 139.749 70.2713C143.565 64.2655 145.472 59.2132 145.472 55.1151C145.472 53.5604 145.154 52.3238 144.518 51.4052C143.883 50.4867 143.14 50.0274 142.293 50.0274C140.385 50.0274 138.124 51.2639 135.509 53.7372C132.895 56.2101 130.916 59.1428 129.574 62.5342ZM147.914 75.7828C147.914 74.0166 149.858 70.3423 153.744 64.7603C157.701 59.1073 167.063 46.3531 181.831 26.4976C182.537 27.2042 182.891 28.264 182.891 29.6772C182.891 31.1611 181.301 34.1642 178.121 38.6864L161.693 61.3683C161.128 62.2164 160.139 63.5588 158.725 65.396C157.383 67.2331 156.429 68.5755 155.863 69.4237C155.298 70.2713 154.592 71.3313 153.744 72.6032C152.966 73.8047 152.401 74.7937 152.048 75.5709C151.765 76.2776 151.624 76.8783 151.624 77.3726C151.624 78.6445 152.436 79.2807 154.062 79.2807C155.546 79.2807 157.206 78.5386 159.043 77.0547L159.361 77.479C157.241 79.1748 155.122 80.0224 153.002 80.0224C151.094 80.0224 149.751 79.5986 148.974 78.7505C148.267 77.8319 147.914 76.8428 147.914 75.7828Z" fill="#BB9457"/>
</svg>
