<svg width="36" height="37" viewBox="0 0 36 37" fill="none" xmlns="http://www.w3.org/2000/svg">
<path d="M11.556 15.7912C12.5159 14.305 13.6305 12.8187 14.9 11.3325C16.2005 9.81534 17.6557 8.3446 19.2658 6.92029C20.8759 5.496 22.6098 4.35037 24.4676 3.48341C26.3563 2.58547 28.1676 2.13651 29.9017 2.13651C31.7594 2.13651 33.1063 2.70934 33.9422 3.85497C34.8092 4.96964 35.2426 6.40941 35.2426 8.17431C35.2426 10.7752 34.2983 13.7786 32.4097 17.1845C30.5519 20.5905 28.2451 23.7333 25.4895 26.6129C22.7337 29.4923 19.6528 31.9385 16.2469 33.9509C12.841 35.9635 9.72919 36.9698 6.91156 36.9698C4.55836 36.9698 2.83991 36.2887 1.75621 34.9263C0.703465 33.5951 0.177094 31.8766 0.177094 29.7711C0.177094 27.7274 0.718946 25.3898 1.80265 22.7579C2.91733 20.126 4.46548 17.4942 6.44711 14.8623C8.45969 12.2304 10.72 9.79986 13.228 7.57052C15.736 5.34119 18.5382 3.52984 21.6345 2.13651C24.7617 0.743178 27.8271 0.0465088 30.8304 0.0465088V0.278731C27.6103 0.278731 24.2664 1.23859 20.7985 3.15829C17.3306 5.078 14.2653 7.47765 11.6025 10.3572C8.9706 13.2058 6.78769 16.3485 5.05376 19.7854C3.35079 23.2223 2.49932 26.3961 2.49932 29.3066C2.49932 31.3501 3.02569 33.0221 4.07845 34.3226C5.16214 35.623 6.64837 36.2732 8.53711 36.2732C10.7355 36.2732 13.2899 35.2669 16.2005 33.2543C19.111 31.2108 21.7738 28.7648 24.1888 25.916C26.6351 23.0365 28.6941 19.9712 30.3659 16.7201C32.0691 13.438 32.9206 10.6668 32.9206 8.40654C32.9206 6.30105 32.5181 4.81482 31.713 3.94785C30.9388 3.04992 30.0254 2.60095 28.9727 2.60095C26.1861 2.60095 23.0123 4.11814 19.4516 7.15252C15.8908 10.1869 13.3828 13.2213 11.9276 16.2556C11.8037 16.5034 11.6644 16.6272 11.5096 16.6272C11.3857 16.6272 11.3238 16.5498 11.3238 16.395C11.3238 16.3021 11.4012 16.1008 11.556 15.7912Z" fill="#BB9457"/>
</svg>
