<svg width="16" height="20" viewBox="0 0 16 20" fill="none" xmlns="http://www.w3.org/2000/svg">
<path fill-rule="evenodd" clip-rule="evenodd" d="M8 1.53944C6.14717 1.53944 4.64516 3.03182 4.64516 4.87277C4.64516 6.71372 6.14717 8.20611 8 8.20611C9.85283 8.20611 11.3548 6.71372 11.3548 4.87277C11.3548 3.03182 9.85283 1.53944 8 1.53944ZM3.09677 4.87277C3.09677 2.18215 5.29202 0.000976562 8 0.000976562C10.708 0.000976562 12.9032 2.18215 12.9032 4.87277C12.9032 7.56339 10.708 9.74457 8 9.74457C5.29202 9.74457 3.09677 7.56339 3.09677 4.87277Z" fill="#2B2D42"/>
<path fill-rule="evenodd" clip-rule="evenodd" d="M5.46618 13.3343C3.30244 13.3343 1.54839 15.0771 1.54839 17.227C1.54839 17.3399 1.56915 17.4195 1.59092 17.466C1.60929 17.5051 1.62506 17.5163 1.63821 17.5234C2.23988 17.8487 3.92682 18.4625 8 18.4625C12.0732 18.4625 13.7601 17.8487 14.3618 17.5234C14.3749 17.5163 14.3907 17.5051 14.4091 17.466C14.4309 17.4195 14.4516 17.3399 14.4516 17.227C14.4516 15.0771 12.6976 13.3343 10.5338 13.3343H5.46618ZM0 17.227C0 14.2275 2.44729 11.7958 5.46618 11.7958H10.5338C13.5527 11.7958 16 14.2275 16 17.227C16 17.7776 15.7994 18.4976 15.1019 18.8747C14.1779 19.3743 12.1959 20.001 8 20.001C3.80414 20.001 1.82206 19.3743 0.898118 18.8747C0.200634 18.4976 0 17.7776 0 17.227Z" fill="#2B2D42"/>
</svg>
