<svg width="14" height="18" viewBox="0 0 14 18" fill="none" xmlns="http://www.w3.org/2000/svg">
<path fill-rule="evenodd" clip-rule="evenodd" d="M2.71389 0.921508C3.91018 0.808586 5.66513 0.667786 7.00001 0.667786C8.33489 0.667786 10.0898 0.808586 11.2861 0.921508C12.4147 1.02804 13.2908 1.92624 13.3748 3.04427C13.4937 4.62543 13.6667 7.25766 13.6667 9.19836C13.6667 10.6861 13.5651 12.5773 13.4646 14.0873C13.4142 14.8443 13.3638 15.5092 13.326 15.9849C13.3071 16.2229 13.2913 16.4136 13.2803 16.545L13.2674 16.6961L13.2629 16.7483L13.2628 16.7491C13.2628 16.7492 13.2628 16.7492 12.6201 16.6934L13.2628 16.7491C13.2439 16.9639 13.1177 17.1549 12.9268 17.2574C12.736 17.3598 12.506 17.3602 12.3149 17.2582L7.10174 14.4772C7.03821 14.4433 6.96181 14.4433 6.89828 14.4772L1.68512 17.2582C1.49398 17.3602 1.26407 17.3598 1.07321 17.2574C0.882355 17.1549 0.756114 16.964 0.737227 16.7492L1.37994 16.6934C0.737227 16.7492 0.737231 16.7493 0.737227 16.7492L0.732617 16.6961L0.719769 16.545C0.708718 16.4136 0.692956 16.2229 0.674054 15.9849C0.636256 15.5092 0.585866 14.8443 0.535467 14.0873C0.434935 12.5773 0.333344 10.6861 0.333344 9.19836C0.333344 7.25766 0.506368 4.62543 0.625181 3.04427C0.709192 1.92624 1.58531 1.02804 2.71389 0.921508ZM1.94317 15.6654L6.28793 13.3477C6.73263 13.1105 7.26739 13.1105 7.71209 13.3477L12.0568 15.6654C12.0917 15.2176 12.1344 14.6434 12.177 14.0027C12.2772 12.498 12.3764 10.6417 12.3764 9.19836C12.3764 7.31027 12.2069 4.7205 12.0881 3.13972C12.0505 2.63945 11.6615 2.24476 11.1641 2.19781C9.97095 2.08519 8.26872 1.94984 7.00001 1.94984C5.7313 1.94984 4.02907 2.08519 2.83592 2.19781C2.33855 2.24476 1.94951 2.63945 1.91192 3.13972C1.79314 4.7205 1.62367 7.31027 1.62367 9.19836C1.62367 10.6417 1.72279 12.498 1.82298 14.0027C1.86563 14.6434 1.90829 15.2176 1.94317 15.6654Z" fill="white"/>
</svg>
