<svg width="16" height="20" viewBox="0 0 16 20" fill="none" xmlns="http://www.w3.org/2000/svg">
<path fill-rule="evenodd" clip-rule="evenodd" d="M2.85665 0.305443C4.2922 0.169937 6.39814 0.000976562 8 0.000976562C9.60186 0.000976562 11.7078 0.169937 13.1433 0.305443C14.4976 0.433278 15.549 1.51112 15.6498 2.85275C15.7924 4.75016 16 7.90882 16 10.2377C16 12.023 15.8781 14.2925 15.7575 16.1045C15.697 17.0128 15.6365 17.8107 15.5911 18.3816C15.5685 18.6671 15.5496 18.8959 15.5363 19.0536L15.5209 19.235L15.5154 19.2976L15.5153 19.2986C15.5153 19.2987 15.5153 19.2987 14.7441 19.2317L15.5153 19.2986C15.4927 19.5563 15.3412 19.7855 15.1122 19.9085C14.8831 20.0315 14.6072 20.0318 14.3779 19.9095L8.12207 16.5723C8.04584 16.5317 7.95416 16.5317 7.87793 16.5723L1.62213 19.9095C1.39277 20.0318 1.11687 20.0315 0.88784 19.9085C0.658814 19.7855 0.507325 19.5564 0.48466 19.2987L1.25591 19.2317C0.48466 19.2987 0.484666 19.2988 0.48466 19.2987L0.479129 19.235L0.46371 19.0536C0.450449 18.8959 0.431535 18.6671 0.408853 18.3816C0.363495 17.8107 0.303027 17.0128 0.242549 16.1045C0.12191 14.2925 0 12.023 0 10.2377C0 7.90882 0.20763 4.75016 0.350205 2.85275C0.451018 1.51112 1.50236 0.433278 2.85665 0.305443ZM1.93179 17.9981L7.1455 15.2169C7.67914 14.9322 8.32086 14.9322 8.8545 15.2169L14.0682 17.9981C14.1101 17.4608 14.1613 16.7717 14.2124 16.0029C14.3327 14.1972 14.4516 11.9696 14.4516 10.2377C14.4516 7.97196 14.2482 4.86424 14.1057 2.9673C14.0606 2.36698 13.5938 1.89335 12.9969 1.83701C11.5651 1.70186 9.52245 1.53944 8 1.53944C6.47755 1.53944 4.43487 1.70186 3.00309 1.83701C2.40624 1.89335 1.9394 2.36698 1.89429 2.9673C1.75175 4.86424 1.54839 7.97196 1.54839 10.2377C1.54839 11.9696 1.66734 14.1972 1.78756 16.0029C1.83874 16.7717 1.88993 17.4608 1.93179 17.9981Z" fill="#2B2D42"/>
</svg>
