<svg width="20" height="20" viewBox="0 0 20 20" fill="none" xmlns="http://www.w3.org/2000/svg">
<path fill-rule="evenodd" clip-rule="evenodd" d="M9.48718 1.53944C5.09639 1.53944 1.53846 5.09453 1.53846 9.4781C1.53846 13.8617 5.09639 17.4168 9.48718 17.4168C11.6777 17.4168 13.6599 16.5328 15.0983 15.101C16.5433 13.6627 17.4359 11.6751 17.4359 9.4781C17.4359 5.09453 13.878 1.53944 9.48718 1.53944ZM0 9.4781C0 4.24319 4.24839 0.000976562 9.48718 0.000976562C14.726 0.000976562 18.9744 4.24319 18.9744 9.4781C18.9744 11.8235 18.1207 13.9707 16.7083 15.625L19.7744 18.6875C20.075 18.9877 20.0752 19.4748 19.775 19.7754C19.4748 20.0759 18.9877 20.0762 18.6872 19.776L15.6182 16.7106C13.965 18.1102 11.8242 18.9552 9.48718 18.9552C4.24839 18.9552 0 14.713 0 9.4781Z" fill="#2B2D42"/>
</svg>
